<svg xmlns="http://www.w3.org/2000/svg" width="1024" height="700" viewBox="0 0 1024 700">
<path d="M 502.00 602.00 L 495.00 609.00 L 497.00 617.00 L 506.00 612.00 Z M 571.00 688.00 L 555.00 650.00 L 527.00 626.00 L 516.00 634.00 L 544.00 657.00 L 553.00 682.00 L 524.00 680.00 L 539.00 660.00 L 532.00 651.00 L 511.00 671.00 L 491.00 651.00 L 484.00 657.00 L 495.00 674.00 L 505.00 670.00 L 508.00 673.00 L 488.00 682.00 L 468.00 681.00 L 480.00 655.00 L 527.00 613.00 L 520.00 601.00 L 505.00 620.00 L 471.00 646.00 L 456.00 671.00 L 452.00 691.00 L 486.00 696.00 L 516.00 685.00 L 517.00 690.00 L 527.00 694.00 L 556.00 696.00 L 570.00 693.00 Z M 520.00 681.00 L 524.00 683.00 Z M 510.00 562.00 L 482.00 596.00 L 476.00 632.00 L 487.00 626.00 L 496.00 594.00 L 513.00 578.00 L 528.00 598.00 L 535.00 627.00 L 546.00 633.00 L 546.00 612.00 L 539.00 593.00 Z M 432.00 366.00 L 434.00 377.00 Z M 503.00 337.00 L 489.00 347.00 Z M 624.00 334.00 L 602.00 345.00 L 589.00 344.00 L 577.00 355.00 L 571.00 349.00 L 554.00 361.00 L 551.00 358.00 L 563.00 348.00 L 518.00 373.00 L 549.00 360.00 L 550.00 382.00 L 535.00 422.00 L 512.00 454.00 L 488.00 423.00 L 485.00 433.00 L 492.00 454.00 L 486.00 452.00 L 479.00 437.00 L 478.00 416.00 L 495.00 377.00 L 530.00 352.00 L 531.00 347.00 L 500.00 367.00 L 482.00 391.00 L 474.00 414.00 L 474.00 435.00 L 484.00 462.00 L 411.00 456.00 L 432.00 489.00 L 496.00 487.00 L 495.00 564.00 L 510.00 552.00 L 527.00 564.00 L 528.00 486.00 L 614.00 493.00 L 613.00 453.00 L 544.00 462.00 L 537.00 459.00 L 560.00 427.00 L 572.00 397.00 L 575.00 366.00 L 561.00 374.00 L 564.00 362.00 L 569.00 357.00 L 574.00 361.00 L 599.00 351.00 Z M 420.00 329.00 L 417.00 347.00 Z M 616.00 328.00 L 602.00 337.00 L 610.00 336.00 Z M 591.00 328.00 L 578.00 337.00 Z M 636.00 321.00 L 629.00 329.00 Z M 442.00 319.00 L 434.00 326.00 L 433.00 336.00 Z M 488.00 317.00 L 478.00 321.00 L 473.00 330.00 L 483.00 326.00 Z M 617.00 314.00 L 625.00 310.00 Z M 478.00 310.00 L 466.00 320.00 L 474.00 318.00 Z M 628.00 295.00 L 600.00 300.00 L 589.00 307.00 Z M 434.00 287.00 L 429.00 294.00 Z M 629.00 282.00 L 616.00 285.00 L 611.00 291.00 L 620.00 290.00 Z M 501.00 273.00 L 470.00 284.00 L 448.00 302.00 L 446.00 309.00 L 471.00 290.00 L 474.00 293.00 L 460.00 308.00 L 491.00 290.00 Z M 676.00 272.00 L 665.00 284.00 Z M 463.00 270.00 L 457.00 268.00 L 448.00 283.00 Z M 665.00 264.00 L 629.00 304.00 L 651.00 290.00 Z M 626.00 263.00 L 591.00 281.00 L 535.00 293.00 L 532.00 290.00 L 541.00 287.00 L 547.00 277.00 L 526.00 282.00 L 502.00 294.00 L 486.00 312.00 L 496.00 314.00 L 486.00 329.00 L 462.00 344.00 L 459.00 341.00 L 466.00 328.00 L 454.00 335.00 L 444.00 361.00 L 443.00 384.00 L 450.00 405.00 L 455.00 378.00 L 461.00 367.00 L 469.00 363.00 L 458.00 395.00 L 458.00 415.00 L 464.00 433.00 L 471.00 398.00 L 501.00 359.00 L 542.00 336.00 L 542.00 345.00 L 557.00 346.00 L 571.00 335.00 L 555.00 340.00 L 554.00 335.00 L 594.00 318.00 L 600.00 321.00 L 600.00 315.00 L 607.00 310.00 L 574.00 319.00 L 576.00 309.00 L 562.00 318.00 L 560.00 311.00 L 574.00 301.00 L 558.00 306.00 L 556.00 300.00 L 521.00 311.00 L 508.00 325.00 L 533.00 321.00 L 533.00 326.00 L 479.00 367.00 L 467.00 394.00 L 463.00 393.00 L 465.00 381.00 L 485.00 352.00 L 471.00 359.00 L 476.00 344.00 L 519.00 306.00 L 594.00 284.00 L 601.00 288.00 L 601.00 282.00 L 618.00 273.00 Z M 458.00 361.00 L 447.00 383.00 L 446.00 375.00 Z M 551.00 320.00 L 555.00 322.00 Z M 542.00 319.00 L 548.00 324.00 L 542.00 325.00 Z M 541.00 309.00 L 547.00 307.00 L 549.00 314.00 Z M 554.00 306.00 L 556.00 314.00 L 552.00 312.00 Z M 647.00 262.00 L 642.00 268.00 Z M 505.00 254.00 L 491.00 259.00 L 473.00 274.00 Z M 524.00 246.00 L 515.00 250.00 Z M 645.00 245.00 L 638.00 249.00 L 637.00 256.00 Z M 562.00 243.00 L 520.00 256.00 L 505.00 266.00 L 556.00 252.00 Z M 582.00 235.00 L 572.00 238.00 L 568.00 245.00 Z M 677.00 233.00 L 672.00 242.00 Z M 621.00 228.00 L 609.00 238.00 L 606.00 233.00 L 599.00 233.00 L 560.00 255.00 L 516.00 268.00 L 500.00 287.00 L 572.00 259.00 L 576.00 263.00 L 586.00 260.00 L 616.00 241.00 Z M 569.00 228.00 L 551.00 240.00 L 567.00 234.00 Z M 614.00 224.00 L 605.00 228.00 Z M 648.00 218.00 L 612.00 254.00 L 586.00 268.00 L 560.00 274.00 L 550.00 284.00 L 588.00 277.00 L 617.00 263.00 L 637.00 243.00 Z M 551.00 218.00 L 494.00 240.00 L 471.00 258.00 L 502.00 242.00 L 529.00 235.00 Z M 672.00 217.00 L 667.00 228.00 Z M 604.00 215.00 L 591.00 228.00 Z M 589.00 214.00 L 576.00 227.00 Z M 526.00 210.00 L 515.00 220.00 Z M 585.00 199.00 L 577.00 209.00 Z M 661.00 198.00 L 652.00 229.00 L 661.00 218.00 Z M 633.00 190.00 L 614.00 219.00 L 626.00 211.00 Z M 611.00 189.00 L 601.00 205.00 Z M 560.00 184.00 L 550.00 194.00 Z M 663.00 178.00 L 665.00 186.00 Z M 626.00 172.00 L 621.00 186.00 Z M 613.00 172.00 L 608.00 180.00 Z M 638.00 162.00 L 643.00 168.00 Z M 648.00 144.00 L 647.00 188.00 L 626.00 222.00 L 626.00 230.00 L 644.00 212.00 L 654.00 192.00 L 656.00 163.00 Z M 606.00 132.00 L 616.00 142.00 Z M 622.00 129.00 L 637.00 155.00 L 642.00 156.00 L 635.00 138.00 Z M 0.00 0.00 L 1023.00 1.00 Z" fill="#00D1FF" fill-rule="evenodd"/>
</svg>